# xmcd
#
# Track frame offsets: 
#        150
#        13449
#        30002
#        45109
#        60568
#        74278
#        90337
#        103824
#        120882
#        137082
#
# Disc length: 2087 seconds
#
# Revision: 6
# Processed by: cddbd v1.5.2PL0 Copyright (c) Steve Scherf et al.
# Submitted via: ExactAudioCopy v1.3
#
DISCID=7108250a
DTITLE=Hank Williams Jr. - Wham Bam Sam
DYEAR=1996
DGENRE=Country/rock
TTITLE0=Don Juan D'Bubba
TTITLE1=Houston, We Have A Problem
TTITLE2=It Makes A Good Story
TTITLE3=Maybe I'm The One Who's Crazy
TTITLE4=Honky Tonked All To Hell
TTITLE5=She Don't Do Nothin' For Me
TTITLE6=Been There, Done That
TTITLE7=Let's Keep The Heart In Country
TTITLE8=You Won't Mind The Rain
TTITLE9=Wam Bam, Sam
EXTD=(c)1996 Curb Records, Inc.\nupc 715187783324\nCatalog: D2-77833\n
EXTT0=
EXTT1=
EXTT2=
EXTT3=
EXTT4=
EXTT5=
EXTT6=
EXTT7=
EXTT8=
EXTT9=
PLAYORDER=
